<?xml version="1.0" encoding="UTF-8"?>
<!-- Generated by Pixelmator Pro 3.7.1 -->
<svg width="48" height="46" viewBox="0 0 48 46" xmlns="http://www.w3.org/2000/svg">
    <g id="g1">
        <path id="--3" fill="#ffffff" fill-rule="evenodd" stroke="#ffffff" stroke-width="1.198598" stroke-linecap="round" stroke-linejoin="round" d="M 11.779943 38.162708 C 11.238302 37.956833 10.364351 37.526299 9.804007 37.286579 C 9.243661 37.046864 8.461576 36.686859 8.066039 36.486576 C 7.521064 36.210617 7.257335 36.03463 6.977176 35.759964 C 6.670866 35.459671 6.590022 35.3368 6.505703 35.043415 C 6.433725 34.792969 6.411421 34.547363 6.429511 34.204395 C 6.448287 33.848434 6.496809 33.628441 6.611971 33.377136 C 6.698257 33.188843 6.992734 32.689926 7.266364 32.268433 C 7.539994 31.846935 7.865424 31.296465 7.989539 31.045164 C 8.113657 30.793865 8.262548 30.408066 8.320412 30.187841 C 8.393916 29.908087 8.425002 29.567207 8.423572 29.05661 C 8.422447 28.654657 8.398075 27.889557 8.369412 27.356384 C 8.317297 26.386982 8.317297 26.386982 8.481967 26.050407 C 8.596121 25.817085 8.759814 25.619463 9.015566 25.406204 C 9.218479 25.237007 9.586761 24.969385 9.833971 24.811489 C 10.081182 24.653587 10.337382 24.485264 10.403305 24.437435 C 10.520994 24.352047 10.518662 24.341969 10.274629 23.881006 C 10.137934 23.622799 9.874959 23.067984 9.690239 22.648079 C 9.50552 22.228178 9.23438 21.534269 9.087708 21.106062 C 8.941034 20.677855 8.728125 19.956156 8.614574 19.502289 C 8.501024 19.048422 8.365098 18.424234 8.312516 18.11521 C 8.259933 17.806185 8.182965 17.253334 8.141475 16.886646 C 8.085094 16.388355 8.066039 14.456373 8.066039 9.238113 L 8.066039 2.256279 L 24.187183 2.256279 L 40.308334 2.256279 L 40.308334 9.268078 C 40.308334 15.60837 40.298218 16.360229 40.202682 17.118896 C 40.144573 17.580359 40.028297 18.289871 39.944298 18.695599 C 39.860298 19.101324 39.687519 19.789019 39.560349 20.22381 C 39.433178 20.658602 39.204716 21.337965 39.05265 21.7335 C 38.900585 22.129036 38.568115 22.881254 38.313831 23.405096 C 37.877399 24.304155 37.857933 24.36125 37.966454 24.423904 C 38.029682 24.460409 38.353241 24.669638 38.685471 24.888863 C 39.0177 25.108084 39.414227 25.410795 39.566643 25.561556 C 39.719059 25.712317 39.893871 25.937479 39.95512 26.061918 C 40.040276 26.234951 40.066208 26.422096 40.065346 26.857508 C 40.064728 27.170639 40.040653 27.921558 40.011848 28.526213 C 39.966244 29.483418 39.972923 29.682669 40.06353 30.066982 C 40.120762 30.30975 40.273418 30.727226 40.402767 30.994709 C 40.53212 31.262188 40.854958 31.816067 41.120182 32.225548 C 41.38541 32.635033 41.668545 33.098232 41.749371 33.254879 C 41.830196 33.411526 41.925995 33.701504 41.962257 33.899269 C 41.998524 34.097038 42.010822 34.420662 41.989594 34.618431 C 41.968369 34.8162 41.883278 35.118637 41.800514 35.290508 C 41.717743 35.462387 41.53373 35.705101 41.39159 35.82988 C 41.249447 35.954659 40.963997 36.156502 40.757256 36.278419 C 40.55051 36.400337 40.05479 36.64637 39.655651 36.825161 C 39.256512 37.003952 38.552387 37.312988 38.090927 37.511921 C 37.629467 37.71085 36.914799 38.028252 36.502781 38.217255 C 36.090759 38.406258 35.028568 38.65947 35.028568 38.65947 C 35.028568 38.65947 35.885101 42.002193 35.848621 42.038677 C 35.817089 42.07021 35.176033 42.226051 34.424053 42.384991 C 33.672066 42.543934 32.530922 42.770535 31.888176 42.888554 C 31.24543 43.006565 30.287918 43.168762 29.760384 43.248985 C 29.232843 43.329208 28.275461 43.451504 27.632872 43.520756 C 26.760201 43.614803 25.964018 43.652008 24.486834 43.66777 C 23.399103 43.679375 22.212492 43.664711 21.849916 43.635185 C 21.487343 43.605656 20.813131 43.538643 20.351671 43.486271 C 19.890209 43.433899 19.054186 43.313789 18.493843 43.219364 C 17.9335 43.124935 17.030056 42.95137 16.486191 42.83366 C 15.942327 42.71595 14.917527 42.469719 14.208855 42.286476 C 13.500182 42.103233 12.896418 41.929489 12.867155 41.900372 C 12.836209 41.869583 13.789345 38.603767 13.789345 38.603767 C 13.789345 38.603767 12.386256 38.393162 11.779943 38.162708 Z M 24.516798 42.767796"/>
        <path id="--2" fill="#b5b6b6" fill-rule="evenodd" stroke="none" d="M 15.488382 34.378712 C 14.320518 34.378712 14.299829 34.3834 14.233878 34.528534 C 14.196436 34.610939 13.874587 35.527866 13.518662 36.566154 C 13.162737 37.604439 12.841272 38.48748 12.804298 38.528465 C 12.751655 38.586819 12.529408 38.507462 11.779943 38.162708 C 11.253523 37.920551 10.364351 37.526299 9.804007 37.286579 C 9.243662 37.046864 8.461576 36.686859 8.066039 36.486576 C 7.521064 36.210617 7.257335 36.03463 6.977176 35.759964 C 6.670866 35.459671 6.590022 35.3368 6.505703 35.043415 C 6.433725 34.792969 6.411421 34.547367 6.429511 34.204399 C 6.448287 33.848434 6.496809 33.628441 6.611971 33.377136 C 6.698257 33.188843 6.992734 32.689926 7.266364 32.268433 C 7.539994 31.846935 7.865424 31.296465 7.989539 31.045166 C 8.113657 30.793865 8.262548 30.408066 8.320412 30.187843 C 8.393916 29.908087 8.425002 29.567207 8.423573 29.05661 C 8.422447 28.654659 8.398075 27.889557 8.369412 27.356384 C 8.317297 26.386982 8.317297 26.386982 8.481968 26.050407 C 8.596121 25.817085 8.759814 25.619463 9.015567 25.406204 C 9.218479 25.237007 9.586761 24.969387 9.833971 24.811489 C 10.081182 24.653587 10.337382 24.485266 10.403305 24.437435 C 10.520994 24.352047 10.518662 24.341969 10.274629 23.881006 C 10.137934 23.622799 9.874959 23.067984 9.690239 22.648079 C 9.50552 22.228178 9.23438 21.534269 9.087708 21.106062 C 8.941034 20.677855 8.728125 19.956158 8.614574 19.502289 C 8.501025 19.048422 8.365098 18.424234 8.312516 18.115211 C 8.259933 17.806187 8.182965 17.253334 8.141475 16.886648 C 8.085094 16.388355 8.066039 14.456373 8.066039 9.238113 L 8.066039 2.256283 L 24.187183 2.256283 L 40.308327 2.256283 L 40.308327 9.268082 C 40.308327 15.608372 40.29821 16.360231 40.202675 17.118898 C 40.144569 17.580359 40.028294 18.289871 39.944294 18.695599 C 39.860291 19.101326 39.687515 19.789019 39.560341 20.223812 C 39.433174 20.658604 39.204708 21.337965 39.052647 21.733501 C 38.900578 22.129036 38.568111 22.881254 38.313828 23.405096 C 37.877396 24.304155 37.857929 24.36125 37.96645 24.423904 C 38.029678 24.460409 38.353237 24.669638 38.685467 24.888863 C 39.017696 25.108084 39.414223 25.410795 39.566639 25.561556 C 39.719055 25.712317 39.893867 25.937479 39.955112 26.061918 C 40.040272 26.234953 40.0662 26.422098 40.065342 26.857508 C 40.064724 27.170639 40.040649 27.92156 40.011845 28.526215 C 39.966236 29.483418 39.972919 29.682671 40.063526 30.066984 C 40.120754 30.30975 40.273415 30.727226 40.402763 30.994709 C 40.532116 31.262188 40.85495 31.816067 41.120178 32.225552 C 41.385406 32.635033 41.668541 33.098232 41.749363 33.254879 C 41.830193 33.411526 41.925991 33.701504 41.962254 33.899273 C 41.998516 34.097038 42.010818 34.420662 41.98959 34.618431 C 41.968361 34.8162 41.883274 35.118637 41.800507 35.290508 C 41.717739 35.462387 41.533726 35.705101 41.391582 35.82988 C 41.249439 35.954659 40.963993 36.156502 40.757252 36.278419 C 40.550507 36.400337 40.054787 36.64637 39.655647 36.825161 C 39.256508 37.003952 38.552383 37.312988 38.090923 37.511921 C 37.629459 37.71085 36.914799 38.028252 36.502781 38.217255 C 36.090763 38.406258 35.717514 38.563801 35.673336 38.567352 C 35.620029 38.571636 35.347103 37.868443 34.861732 36.476257 L 34.130451 34.378712 L 33.535385 34.378712 C 32.959602 34.378712 32.938007 34.373852 32.869049 34.228886 C 32.829853 34.146484 32.577675 33.539692 32.308647 32.880463 C 32.039627 32.221233 31.800375 31.662109 31.776985 31.637966 C 31.753593 31.613823 31.496609 31.78548 31.205908 32.019428 C 30.733242 32.399811 30.680983 32.461483 30.711651 32.602695 C 30.730513 32.689545 30.969757 33.407845 31.243305 34.198921 C 31.740667 35.637238 31.740667 35.637238 31.983181 35.62241 C 32.116562 35.614254 32.639717 35.525749 33.145752 35.425732 C 33.651787 35.325714 34.085022 35.264969 34.108501 35.290737 C 34.131977 35.316505 34.546009 36.832436 35.028568 38.65947 C 35.586941 40.77354 35.885105 42.002193 35.848621 42.038677 C 35.817089 42.07021 35.176033 42.226051 34.424053 42.384991 C 33.67207 42.543934 32.530922 42.770535 31.888176 42.888554 C 31.24543 43.006565 30.28792 43.168762 29.760384 43.248985 C 29.232843 43.329208 28.275461 43.451504 27.632872 43.520756 C 26.760201 43.614803 25.96402 43.652008 24.486834 43.66777 C 23.399105 43.679375 22.212492 43.664711 21.849918 43.635185 C 21.487343 43.605656 20.813131 43.538643 20.351669 43.486271 C 19.890209 43.433899 19.054186 43.313789 18.493843 43.219364 C 17.9335 43.124935 17.030056 42.95137 16.486191 42.83366 C 15.942327 42.71595 14.917526 42.469719 14.208855 42.286476 C 13.500183 42.103233 12.896418 41.929489 12.867155 41.900372 C 12.836209 41.869583 13.209166 40.485634 13.758579 38.592514 C 14.278127 36.802307 14.720523 35.318268 14.74168 35.294659 C 14.76284 35.271042 15.244639 35.337391 15.812346 35.442101 C 16.56776 35.581432 16.862349 35.61467 16.910961 35.566055 C 16.947495 35.529522 17.180323 34.910316 17.428356 34.190048 C 17.676392 33.469776 17.891863 32.823833 17.907185 32.754616 C 17.929682 32.652992 17.818356 32.537613 17.32893 32.155315 C 16.995565 31.89492 16.693228 31.681866 16.657066 31.681866 C 16.620905 31.681866 16.343155 32.288654 16.039848 33.030289 L 15.488382 34.378712 Z M 24.516798 42.767796 C 25.423239 42.755394 26.60985 42.702408 27.153715 42.650059 C 27.697578 42.597706 28.696087 42.474941 29.372618 42.377243 C 30.04915 42.279545 31.168894 42.092773 31.860933 41.962193 C 32.552979 41.831608 33.482712 41.648209 33.927017 41.554634 C 34.700871 41.391651 34.73468 41.378323 34.730843 41.237679 C 34.728642 41.156929 34.448494 40.039093 34.108295 38.753593 C 33.768093 37.468098 33.469082 36.393288 33.443821 36.365128 C 33.41856 36.336967 33.013416 36.384483 32.543503 36.470715 C 32.073593 36.55695 31.228249 36.693611 30.664961 36.774399 C 30.101677 36.855194 29.241898 36.962502 28.754345 37.012856 C 28.266788 37.063217 27.295923 37.135872 26.596869 37.17432 C 25.824148 37.21682 24.656239 37.229877 23.617849 37.207626 C 22.67845 37.187496 21.437899 37.128204 20.861074 37.075859 C 20.284248 37.023521 19.394291 36.927345 18.883387 36.862141 C 18.372484 36.796932 17.391516 36.647694 16.703455 36.530495 C 15.99291 36.40947 15.429882 36.339958 15.400236 36.36961 C 15.371522 36.398319 15.035755 37.495941 14.654078 38.808765 C 14.211499 40.331093 13.980935 41.216526 14.017569 41.253159 C 14.049161 41.284752 14.489425 41.415554 14.995932 41.543835 C 15.502439 41.672115 16.37335 41.872997 16.93129 41.990238 C 17.489231 42.107483 18.338736 42.267883 18.819082 42.346687 C 19.299429 42.425491 20.083485 42.534092 20.561424 42.588017 C 21.039364 42.641941 21.754032 42.709526 22.149567 42.738209 C 22.545103 42.766884 23.610359 42.780205 24.516798 42.767796 Z M 23.572903 36.317421 C 23.801031 36.322502 23.977428 36.301033 23.977428 36.268185 C 23.977428 36.236145 23.498739 35.967949 22.913673 35.672192 C 22.328608 35.376434 21.472361 34.913837 21.010899 34.644192 C 20.549438 34.37455 19.848619 33.941128 19.453526 33.681034 C 19.05843 33.42094 18.706636 33.219082 18.671762 33.232468 C 18.63689 33.24585 18.476252 33.812813 18.314796 34.492386 C 18.131081 35.265629 18.042383 35.749012 18.077749 35.784195 C 18.108831 35.815117 18.56576 35.894768 19.093142 35.961197 C 19.620523 36.027626 20.389126 36.112545 20.801144 36.149906 C 21.213161 36.187267 21.914343 36.238213 22.359322 36.263119 C 22.8043 36.288029 23.35041 36.312462 23.572903 36.317421 Z M 25.542397 36.303875 C 26.214373 36.280914 27.101276 36.23597 27.513294 36.203995 C 27.925312 36.172016 28.761335 36.089642 29.37112 36.020935 C 30.09269 35.939632 30.510319 35.866673 30.567162 35.811989 C 30.643553 35.738499 30.637424 35.658421 30.518309 35.173199 C 30.443403 34.868076 30.300037 34.272614 30.199718 33.849941 C 30.0994 33.427277 29.984283 33.068779 29.943905 33.053284 C 29.903528 33.037788 29.61655 33.198166 29.306171 33.409683 C 28.995798 33.621197 28.446934 33.976227 28.086468 34.198647 C 27.726004 34.421066 27.065275 34.805912 26.618185 35.053864 C 26.171093 35.301819 25.481668 35.663952 25.086132 35.858608 C 24.690596 36.053261 24.356544 36.242466 24.343798 36.279072 C 24.326998 36.327316 24.656666 36.334141 25.542397 36.303875 Z M 27.003889 33.77808 L 27.06382 25.688875 L 31.5077 25.673508 L 35.95158 25.658144 L 36.321579 25.086992 C 36.525074 24.772858 36.878208 24.173391 37.106323 23.754837 C 37.334435 23.336285 37.646114 22.710258 37.798943 22.363668 C 37.951771 22.017075 38.180496 21.450333 38.307213 21.104237 C 38.433933 20.758141 38.544979 20.421034 38.553989 20.355112 C 38.570236 20.236149 38.527271 20.235029 32.817089 20.205288 L 27.06382 20.175323 L 27.033854 17.838057 L 27.003889 15.50079 L 24.187183 15.50079 L 21.370478 15.50079 L 21.340513 17.838057 L 21.310549 20.175323 L 15.589934 20.190609 C 12.443596 20.199018 9.847035 20.228182 9.819799 20.255419 C 9.792562 20.282654 9.851242 20.534325 9.950197 20.814686 C 10.049152 21.095049 10.249783 21.61006 10.396043 21.95916 C 10.542301 22.308256 10.853343 22.966637 11.087245 23.422218 C 11.321147 23.877806 11.697984 24.546505 11.924664 24.90822 C 12.151341 25.269932 12.373717 25.587692 12.418829 25.614346 C 12.463941 25.641001 14.483034 25.668676 16.905701 25.675842 L 21.310549 25.688875 L 21.340513 29.73271 L 21.370478 33.776543 L 21.752068 34.007263 C 21.961943 34.134163 22.568733 34.464733 23.100491 34.741863 C 23.63225 35.018997 24.112053 35.246178 24.166716 35.246719 C 24.22138 35.247253 24.652878 35.048622 25.125593 34.805305 C 25.598312 34.561989 26.214314 34.231327 26.494486 34.070496 L 27.003889 33.77808 Z M 20.591389 26.408033 C 14.744584 26.384108 13.025396 26.398886 12.998844 26.425438 C 12.972292 26.451994 13.174662 26.755589 13.448556 27.100105 C 13.722454 27.444618 14.230206 28.036757 14.576899 28.41597 C 14.923588 28.795181 15.515234 29.392874 15.891665 29.744169 C 16.268097 30.095467 16.84577 30.607889 17.175385 30.882881 C 17.504999 31.157877 18.030886 31.57473 18.344019 31.809227 C 18.65715 32.04372 19.250458 32.467247 19.662476 32.750401 C 20.074493 33.033558 20.459017 33.266304 20.516968 33.26762 C 20.616482 33.269875 20.621475 33.079399 20.606863 29.83902 L 20.591389 26.408033 Z M 27.782978 26.408033 C 27.752607 33.155273 27.756147 33.283169 27.86195 33.255501 C 27.922407 33.239689 28.266478 33.02977 28.626551 32.789013 C 28.98662 32.548256 29.550911 32.149162 29.880526 31.902136 C 30.21014 31.655107 30.749508 31.231426 31.079123 30.960613 C 31.408737 30.689806 31.996185 30.174381 32.384567 29.815229 C 32.772945 29.456074 33.375378 28.852669 33.723309 28.474323 C 34.071239 28.095976 34.582756 27.505013 34.860012 27.161074 C 35.137268 26.817133 35.364113 26.50005 35.364113 26.456448 C 35.364113 26.391375 34.685081 26.379938 31.573545 26.392605 L 27.782978 26.408033 Z M 31.993053 31.514387 C 32.050739 31.49699 32.421555 31.372423 32.817089 31.237574 C 33.212627 31.10272 33.751995 30.907551 34.01569 30.80386 C 34.279381 30.700169 34.677158 30.521597 34.899643 30.407038 C 35.122128 30.292477 35.423267 30.093906 35.568836 29.965769 C 35.714409 29.837633 35.893215 29.609459 35.96619 29.458719 C 36.073963 29.236082 36.09325 29.115294 36.068928 28.815145 C 36.052464 28.611923 35.974644 28.283838 35.895992 28.086071 C 35.806454 27.860909 35.717976 27.726492 35.659313 27.726492 C 35.607784 27.726492 35.35173 27.982038 35.090305 28.294373 C 34.82888 28.606709 34.237431 29.242249 33.77597 29.706688 C 33.314507 30.171125 32.703175 30.751602 32.41745 30.996632 C 32.131725 31.241663 31.895752 31.465515 31.893064 31.494083 C 31.890375 31.522648 31.935369 31.531784 31.993053 31.514387 Z M 16.296412 31.468548 C 16.340361 31.470509 16.367331 31.447588 16.356342 31.417612 C 16.345358 31.38764 16.012743 31.067959 15.617208 30.707214 C 15.221671 30.346464 14.641101 29.784424 14.327054 29.458233 C 14.013003 29.132042 13.53036 28.600391 13.254512 28.276787 C 12.847227 27.798992 12.739054 27.703253 12.678948 27.767382 C 12.638237 27.810816 12.545259 28.008162 12.472332 28.205931 C 12.398762 28.405439 12.338006 28.712606 12.335851 28.895945 C 12.333499 29.095776 12.374035 29.315041 12.43841 29.450697 C 12.496953 29.574072 12.684943 29.802937 12.856159 29.959282 C 13.036849 30.124271 13.395079 30.351578 13.709933 30.501022 C 14.008292 30.642632 14.694325 30.917454 15.234455 31.111736 C 15.774582 31.306023 16.252462 31.466587 16.296412 31.468548 Z M 11.240558 29.413414 C 11.272547 29.403681 11.316574 29.303312 11.338397 29.190371 C 11.36022 29.077427 11.392785 28.829868 11.410766 28.640244 C 11.428745 28.450617 11.513148 28.143238 11.598328 27.957184 C 11.683508 27.771128 11.848809 27.485817 11.965664 27.323164 C 12.082517 27.160511 12.169835 26.995941 12.159699 26.957451 C 12.149565 26.918962 11.862004 26.469463 11.520676 25.958559 C 11.179349 25.447655 10.861718 25.020782 10.81483 25.009949 C 10.767941 24.999113 10.603932 25.063883 10.450363 25.153879 C 10.296795 25.243877 10.050745 25.428038 9.903584 25.563122 C 9.756424 25.69821 9.572948 25.943577 9.495862 26.108383 C 9.393733 26.326727 9.355543 26.515251 9.355118 26.803177 C 9.354766 27.040648 9.401281 27.3342 9.471685 27.538837 C 9.536119 27.726118 9.675739 28.042389 9.781952 28.241663 C 9.888163 28.440935 10.089884 28.705046 10.230221 28.828577 C 10.370559 28.952106 10.642209 29.138212 10.833887 29.242144 C 11.025567 29.346073 11.208568 29.423147 11.240558 29.413414 Z M 37.198784 29.418524 C 37.274803 29.403992 37.489204 29.300507 37.675236 29.188559 C 37.861263 29.076611 38.156654 28.830944 38.331654 28.642632 C 38.56974 28.38644 38.698269 28.175219 38.842205 27.803614 C 38.948372 27.52951 39.048073 27.142834 39.064713 26.940636 C 39.08543 26.688845 39.063759 26.480659 38.995399 26.274858 C 38.940697 26.110168 38.801796 25.865431 38.686726 25.730995 C 38.571651 25.596561 38.309616 25.376291 38.104424 25.241503 C 37.889 25.1 37.67506 25.003456 37.598152 25.013042 C 37.50087 25.025167 37.315083 25.255241 36.908958 25.866503 C 36.603157 26.326775 36.314785 26.762068 36.268135 26.83382 C 36.190445 26.953306 36.201763 26.989408 36.402687 27.263124 C 36.523342 27.427488 36.70472 27.738609 36.805748 27.954506 C 36.952614 28.268345 36.996567 28.457092 37.025002 28.89599 C 37.059544 29.429113 37.064552 29.444183 37.198784 29.418524 Z M 20.591389 19.456163 L 20.591389 15.440861 L 14.778189 15.440861 L 8.964988 15.440861 L 8.964988 15.950264 C 8.964988 16.230436 9.000669 16.742836 9.044282 17.088932 C 9.087893 17.43503 9.193061 18.055302 9.277988 18.467321 C 9.362914 18.879339 9.454719 19.277264 9.481997 19.351597 C 9.531593 19.486755 9.531593 19.486755 15.061491 19.471458 L 20.591389 19.456163 Z M 38.866703 19.456163 C 39.077309 18.573698 39.193581 17.953421 39.260952 17.508442 C 39.328331 17.063463 39.389286 16.416222 39.396416 16.070124 L 39.409382 15.440861 L 33.59618 15.440861 L 27.782978 15.440861 L 27.767147 17.388096 C 27.758438 18.459076 27.764389 19.3694 27.780367 19.411041 C 27.803543 19.471436 28.928095 19.48366 33.338062 19.471458 L 38.866703 19.456163 Z M 39.409382 14.481981 L 39.409382 3.155231 L 37.641449 3.140648 C 36.42012 3.130577 35.831451 3.10408 35.737461 3.054962 C 35.632935 3.000336 35.585022 3.00024 35.530704 3.054558 C 35.476875 3.108387 32.71059 3.125263 23.940474 3.125263 C 14.781016 3.125263 12.414718 3.109917 12.390551 3.050354 C 12.366504 2.991096 12.349195 2.990891 12.307715 3.049366 C 12.268803 3.104225 11.830937 3.127415 10.610132 3.139259 L 8.964988 3.155231 L 8.947028 4.204002 C 8.934957 4.908882 8.951309 5.289478 8.996895 5.364719 C 9.045545 5.445011 9.046388 5.494999 8.999872 5.541512 C 8.954534 5.586853 8.935022 6.934002 8.935022 10.019199 C 8.935022 12.446259 8.953054 14.450071 8.975093 14.472109 C 8.997131 14.494148 15.853862 14.505384 24.212269 14.497082 L 39.409382 14.481981 Z"/>
        <path id="-" fill="#246e3a" fill-rule="evenodd" stroke="none" d="M 24.63666 42.821377 C 23.960947 42.836563 23.004904 42.826309 22.512114 42.798588 C 22.019323 42.770866 21.227337 42.70396 20.752148 42.64991 C 20.27696 42.595852 19.480057 42.487488 18.981253 42.4091 C 18.482447 42.330708 17.629356 42.173225 17.085491 42.059143 C 16.541626 41.945061 15.638183 41.738113 15.077839 41.599266 C 14.517496 41.460415 14.027793 41.316189 13.989616 41.278767 C 13.937174 41.22736 14.092408 40.620209 14.624393 38.796024 C 15.011702 37.467941 15.353771 36.35614 15.384552 36.325363 C 15.419221 36.290691 15.739826 36.324787 16.227013 36.414944 C 16.659588 36.494999 17.494911 36.627937 18.083292 36.710361 C 18.671669 36.792786 19.544117 36.901237 20.022057 36.951359 C 20.499996 37.00148 21.304455 37.07016 21.809738 37.103973 C 22.315023 37.137787 23.528603 37.165184 24.506582 37.16486 C 25.484566 37.164536 26.675776 37.137177 27.153715 37.104065 C 27.631655 37.070961 28.427225 37.001907 28.921648 36.950623 C 29.416069 36.899338 30.27906 36.790112 30.839405 36.707897 C 31.399748 36.625687 32.208572 36.493855 32.636787 36.41494 C 33.065002 36.336029 33.43475 36.290852 33.458443 36.314552 C 33.482143 36.338249 33.797623 37.476551 34.159515 38.844109 C 34.521408 40.211666 34.797024 41.351337 34.771992 41.376709 C 34.746967 41.402084 34.202484 41.531567 33.562035 41.664452 C 32.921585 41.797337 31.884678 41.997295 31.257795 42.10881 C 30.630907 42.220322 29.633078 42.379742 29.040388 42.463074 C 28.447699 42.546406 27.490822 42.654903 26.913996 42.704178 C 26.33717 42.753452 25.31237 42.80619 24.63666 42.821377 Z M 23.214228 41.611195 C 23.239445 41.600677 23.146744 41.374233 23.008226 41.107983 C 22.869707 40.841732 22.692654 40.548164 22.614767 40.455605 C 22.473162 40.287315 22.473162 40.287315 22.718245 40.162285 C 22.853039 40.093517 23.016102 39.950691 23.080606 39.844898 C 23.145117 39.739101 23.197994 39.548744 23.198118 39.421879 C 23.198238 39.295013 23.154253 39.098309 23.100367 38.984749 C 23.046478 38.871189 22.924398 38.737949 22.829077 38.688656 C 22.733753 38.639359 22.433994 38.573826 22.162945 38.543022 C 21.891895 38.512218 21.494835 38.479576 21.280584 38.470482 C 20.891041 38.453945 20.891041 38.453945 20.789038 39.622578 C 20.732937 40.265324 20.692486 40.924461 20.699142 41.087322 C 20.710665 41.369102 20.720924 41.385925 20.911188 41.434971 C 21.046219 41.46978 21.138632 41.46368 21.195854 41.416187 C 21.250298 41.371006 21.283119 41.214596 21.287674 40.978645 C 21.291576 40.776672 21.312752 40.530518 21.334732 40.431633 C 21.369089 40.277073 21.399635 40.253624 21.55238 40.26453 C 21.663387 40.272461 21.791441 40.345387 21.893641 40.458878 C 21.983612 40.558788 22.128653 40.78231 22.215958 40.955593 C 22.303263 41.128872 22.42598 41.343369 22.488663 41.432247 C 22.580442 41.562382 22.657711 41.597393 22.885506 41.61208 C 23.041084 41.622105 23.189011 41.621712 23.214228 41.611195 Z M 24.826954 41.648411 C 25.141016 41.63023 25.141016 41.63023 25.607166 40.19191 C 25.86355 39.400837 26.063046 38.725071 26.050488 38.690212 C 26.036415 38.651146 25.918568 38.639648 25.74334 38.660248 C 25.459024 38.693665 25.459024 38.693665 25.282717 39.292961 C 25.185751 39.622578 25.051647 40.075546 24.984716 40.299557 C 24.917786 40.523571 24.836124 40.697884 24.803247 40.686928 C 24.77037 40.675968 24.609053 40.290421 24.444765 39.830158 C 24.280474 39.369896 24.114656 38.925892 24.076279 38.843491 C 24.020491 38.723701 23.955418 38.689964 23.751698 38.675209 C 23.576414 38.662514 23.486952 38.682663 23.465038 38.739777 C 23.447514 38.785435 23.626286 39.346596 23.862303 39.986794 C 24.098326 40.626991 24.341261 41.266846 24.402159 41.408691 C 24.51289 41.666595 24.51289 41.666595 24.826954 41.648411 Z M 26.988359 41.528824 C 27.24361 41.510368 27.24361 41.510368 27.233295 41.240685 C 27.227621 41.092361 27.191841 40.485569 27.153784 39.892262 C 27.115728 39.298954 27.060268 38.752846 27.03054 38.67868 C 26.986593 38.569035 26.929787 38.543839 26.7265 38.543839 C 26.476501 38.543839 26.476501 38.543839 26.517263 39.277981 C 26.539679 39.681759 26.584414 40.322258 26.616669 40.701317 C 26.648924 41.080372 26.688318 41.425781 26.704212 41.468895 C 26.7234 41.520947 26.818851 41.54108 26.988359 41.528824 Z M 27.968855 41.480404 C 28.043621 41.480404 28.17211 41.454811 28.254385 41.423531 C 28.373447 41.378258 28.412437 41.310284 28.445395 41.0905 C 28.473413 40.903656 28.528046 40.788609 28.61433 40.734756 C 28.684469 40.690979 28.890182 40.638248 29.071472 40.617577 C 29.252762 40.596909 29.459257 40.566952 29.530354 40.551014 C 29.636311 40.527264 29.69278 40.580799 29.843508 40.84787 C 30.024183 41.168011 30.031342 41.173107 30.253611 41.139748 C 30.378027 41.121075 30.510822 41.07547 30.548706 41.038399 C 30.600321 40.987892 30.489563 40.745682 30.106817 40.072052 C 29.825893 39.577629 29.484646 38.984322 29.34849 38.753593 C 29.147697 38.41333 29.069403 38.33046 28.934019 38.314896 C 28.842218 38.30434 28.696346 38.31929 28.609865 38.348114 C 28.459118 38.398369 28.438595 38.462891 28.112883 39.910576 C 27.926025 40.741104 27.786592 41.434078 27.803032 41.450516 C 27.819469 41.466953 27.894093 41.480404 27.968855 41.480404 Z M 19.722406 41.219894 C 19.918993 41.211296 19.933317 41.196819 19.95056 40.989342 C 19.96792 40.780479 19.957756 40.766098 19.770771 40.735065 C 19.661768 40.716976 19.31638 40.667236 19.003248 40.624531 C 18.433914 40.546894 18.433914 40.546894 18.450659 40.190849 C 18.459866 39.995022 18.488913 39.813293 18.515202 39.787003 C 18.541491 39.760712 18.842707 39.781212 19.184566 39.832561 C 19.526428 39.883907 19.841232 39.912449 19.88413 39.895988 C 19.927689 39.879272 19.962126 39.773117 19.962126 39.655563 C 19.962126 39.485916 19.935963 39.439384 19.827284 39.415745 C 19.753122 39.39962 19.449726 39.35191 19.153072 39.309727 C 18.613703 39.233032 18.613703 39.233032 18.596054 39.023277 C 18.586348 38.907913 18.615742 38.76252 18.661373 38.70018 C 18.741796 38.590309 18.7652 38.589874 19.42437 38.685974 C 19.829403 38.745026 20.126297 38.763222 20.158556 38.730965 C 20.188341 38.701176 20.21701 38.586918 20.22226 38.477055 C 20.231812 38.277306 20.231812 38.277306 19.2188 38.138088 C 18.661646 38.061516 18.183159 38.021496 18.155495 38.04916 C 18.127831 38.076824 18.038143 38.606407 17.956194 39.226006 C 17.874241 39.845604 17.799877 40.490875 17.790937 40.659946 C 17.774685 40.967342 17.774685 40.967342 18.643669 41.098206 C 19.121609 41.170181 19.607042 41.224941 19.722406 41.219894 Z M 31.283096 40.881104 C 31.347908 40.881104 31.466261 40.85627 31.546101 40.825912 C 31.691269 40.770721 31.691269 40.770721 31.519604 39.882015 C 31.425188 39.39323 31.356655 38.952862 31.36731 38.903419 C 31.377962 38.853977 31.468727 38.988819 31.569006 39.203068 C 31.669287 39.41732 31.861286 39.828587 31.995674 40.117001 C 32.207306 40.571198 32.260063 40.641388 32.389809 40.641388 C 32.472195 40.641388 32.60878 40.615086 32.693329 40.582939 C 32.833801 40.529533 32.847076 40.494648 32.847332 40.178413 C 32.847477 39.988068 32.865082 39.528938 32.886452 39.158119 C 32.907818 38.787304 32.942585 38.48391 32.963711 38.48391 C 32.98484 38.48391 33.078827 38.881695 33.172577 39.367874 C 33.266323 39.854057 33.365318 40.295479 33.392567 40.348816 C 33.426735 40.415691 33.493919 40.436699 33.609039 40.416508 C 33.700851 40.400406 33.807114 40.356766 33.845173 40.319538 C 33.897385 40.268463 33.84832 39.913399 33.645355 38.873455 C 33.497398 38.115337 33.356884 37.474689 33.333107 37.449783 C 33.309326 37.424881 33.129559 37.435425 32.933624 37.473213 C 32.737682 37.511005 32.558895 37.55835 32.536316 37.578423 C 32.513737 37.598503 32.479095 37.857643 32.459343 38.154297 C 32.43959 38.450951 32.408726 38.862217 32.390751 39.068226 C 32.372784 39.274235 32.333733 39.442787 32.303982 39.442787 C 32.274231 39.442787 32.074303 39.075024 31.859694 38.62553 C 31.469501 37.808273 31.469501 37.808273 31.214384 37.847527 C 31.074068 37.869118 30.882015 37.903511 30.787598 37.923958 C 30.625879 37.958981 30.617674 37.97541 30.645988 38.207539 C 30.662519 38.34306 30.774946 38.966343 30.89583 39.592613 C 31.01671 40.21888 31.126785 40.764992 31.140436 40.806194 C 31.154087 40.847397 31.218287 40.881104 31.283096 40.881104 Z M 16.149504 40.696587 C 16.464344 40.700195 16.608192 40.672729 16.757406 40.580513 C 16.864912 40.514069 16.996197 40.368408 17.049147 40.256824 C 17.102097 40.145233 17.14542 39.933903 17.14542 39.787189 C 17.14542 39.608734 17.1001 39.453045 17.008493 39.316807 C 16.913208 39.175095 16.709385 39.031166 16.338228 38.843491 C 16.044889 38.695164 15.776283 38.526611 15.741319 38.468925 C 15.696247 38.394566 15.696887 38.333534 15.743513 38.259171 C 15.786592 38.190472 15.901334 38.148155 16.076153 38.136505 C 16.274261 38.123299 16.383604 38.150631 16.500494 38.242577 C 16.587101 38.310699 16.666504 38.426216 16.676952 38.499279 C 16.691765 38.602871 16.748734 38.640774 16.935667 38.671421 C 17.067513 38.693035 17.195614 38.698547 17.220333 38.68367 C 17.245052 38.668797 17.26528 38.573753 17.26528 38.472466 C 17.26528 38.371174 17.210325 38.199387 17.14316 38.090706 C 17.075994 37.982033 16.905951 37.837399 16.765282 37.769302 C 16.624611 37.701206 16.349203 37.630188 16.153259 37.611477 C 15.876995 37.585098 15.750167 37.601852 15.588439 37.686089 C 15.47373 37.745834 15.316278 37.889107 15.238549 38.004471 C 15.129136 38.166855 15.103382 38.270504 15.124498 38.463455 C 15.139503 38.600529 15.210999 38.795853 15.283383 38.897503 C 15.365955 39.01347 15.586629 39.163811 15.875678 39.301041 C 16.129055 39.421326 16.38356 39.560547 16.441244 39.610416 C 16.498928 39.660282 16.546122 39.762367 16.546122 39.837269 C 16.546122 39.914455 16.474724 40.029617 16.381332 40.103081 C 16.256382 40.201366 16.166172 40.224529 16.008175 40.198891 C 15.893576 40.18029 15.731757 40.114651 15.648578 40.05302 C 15.565402 39.99139 15.466981 39.849102 15.429865 39.736824 C 15.367119 39.547001 15.342374 39.531376 15.077031 39.51408 C 14.791676 39.49548 14.791676 39.49548 14.831594 39.74511 C 14.853548 39.882404 14.910786 40.070686 14.958788 40.163513 C 15.006793 40.256336 15.120636 40.384502 15.211778 40.448326 C 15.30292 40.512146 15.458392 40.593052 15.557279 40.628109 C 15.656164 40.66317 15.922663 40.693981 16.149504 40.696587 Z M 28.999168 40.122711 C 28.844036 40.142635 28.701944 40.134403 28.683409 40.104412 C 28.664871 40.074421 28.677389 39.920029 28.711224 39.761318 C 28.745054 39.602608 28.786528 39.412071 28.803387 39.33791 C 28.820246 39.263748 28.859171 39.203068 28.889891 39.203068 C 28.920612 39.203068 29.04488 39.380333 29.166042 39.596992 C 29.288002 39.815075 29.362877 40.012241 29.333782 40.038696 C 29.304874 40.06498 29.154301 40.102783 28.999168 40.122711 Z M 22.074656 39.79528 C 21.918089 39.791374 21.709085 39.770988 21.610199 39.749977 C 21.437973 39.713375 21.429646 39.696953 21.412201 39.359638 C 21.393991 39.007507 21.393991 39.007507 21.875921 39.035404 C 22.229254 39.055859 22.390034 39.092422 22.478447 39.17244 C 22.544775 39.232464 22.599043 39.344818 22.599043 39.422112 C 22.599043 39.499409 22.545103 39.616585 22.479183 39.682507 C 22.390209 39.771481 22.285969 39.800537 22.074656 39.79528 Z M 21.25062 25.688875 L 12.339879 25.628944 L 11.96138 25.026928 C 11.753205 24.695818 11.421976 24.129478 11.225314 23.7684 C 11.028655 23.407316 10.719041 22.774782 10.537288 22.362764 C 10.355534 21.950747 10.120701 21.370926 10.015437 21.074272 C 9.910176 20.777618 9.809293 20.447393 9.791254 20.340433 C 9.758458 20.145962 9.758458 20.145962 15.504539 20.13068 L 21.25062 20.115393 L 21.280584 17.778128 L 21.310549 15.440861 L 24.187185 15.440861 L 27.06382 15.440861 L 27.093784 17.778128 L 27.123751 20.115393 L 32.842365 20.13068 C 35.987606 20.139088 38.575199 20.160179 38.592567 20.177555 C 38.609943 20.194925 38.590527 20.336374 38.549427 20.491882 C 38.508327 20.647388 38.32428 21.15218 38.140438 21.61364 C 37.956596 22.075102 37.644871 22.774881 37.447716 23.168713 C 37.250557 23.56254 36.898727 24.202866 36.665863 24.591658 C 36.432999 24.980448 36.172947 25.380146 36.087959 25.479877 C 35.933445 25.661207 35.933445 25.661207 31.528599 25.675041 L 27.123751 25.688875 L 27.093784 29.731451 L 27.06382 33.774025 L 26.63043 34.02951 C 26.392063 34.170021 25.777723 34.504333 25.265228 34.772423 C 24.752733 35.040512 24.287033 35.269909 24.230337 35.282196 C 24.173639 35.294479 23.830601 35.154369 23.468025 34.970825 C 23.105452 34.787285 22.512144 34.474583 22.149569 34.275921 C 21.786993 34.077263 21.443336 33.870243 21.385889 33.815868 C 21.28891 33.724079 21.28034 33.430012 21.266029 29.702942 Z M 8.905059 3.095299 C 11.411741 3.070522 12.170935 3.075394 12.209372 3.090141 C 12.257235 3.108513 12.177538 3.443993 11.956429 4.1549 C 11.778874 4.725769 11.606823 5.253521 11.57409 5.32769 C 11.51515 5.461235 11.502728 5.462532 10.279737 5.462532 C 9.526888 5.462532 9.052692 5.484726 9.064871 5.51939 C 9.075859 5.550663 9.442211 5.843884 9.878987 6.170986 C 10.315763 6.4981 10.756617 6.83012 10.858661 6.90881 C 11.044193 7.051888 11.044193 7.051888 10.677361 8.219913 C 10.475603 8.862331 10.31792 9.423656 10.326953 9.467316 C 10.336767 9.514744 10.748939 9.241875 11.351076 8.78933 L 12.358776 8.031975 L 13.375608 8.792957 C 13.934866 9.211502 14.403599 9.542789 14.417238 9.529148 C 14.430875 9.515511 14.26752 8.952446 14.054224 8.277897 C 13.666417 7.051434 13.666417 7.051434 13.803616 6.951496 C 13.879076 6.896526 14.318006 6.564102 14.779013 6.212769 C 15.24002 5.861439 15.626013 5.549461 15.636774 5.519489 C 15.648 5.488224 15.125296 5.458076 14.410684 5.448776 L 13.165024 5.432568 L 12.848691 4.443722 C 12.674706 3.89986 12.515525 3.367229 12.494953 3.260109 C 12.457548 3.065334 12.457548 3.065334 23.967224 3.065334 C 30.398962 3.065334 35.49107 3.088261 35.509014 3.117298 C 35.526672 3.145874 35.390244 3.651531 35.20583 4.240982 C 35.021416 4.830429 34.843441 5.346416 34.810333 5.387619 C 34.765728 5.44313 34.433834 5.462532 33.528912 5.462532 C 32.857239 5.462532 32.308643 5.482758 32.309807 5.507477 C 32.310978 5.5322 32.676811 5.822109 33.122768 6.151726 C 33.568729 6.481339 34.019096 6.821899 34.123581 6.908516 C 34.313557 7.066013 34.313557 7.066013 33.936417 8.278446 C 33.728992 8.945282 33.572121 9.503719 33.587814 9.519409 C 33.603512 9.53511 34.04921 9.222034 34.578259 8.823696 C 35.107311 8.425358 35.582302 8.099445 35.633797 8.099445 C 35.685291 8.099445 36.160282 8.425358 36.689335 8.823696 C 37.218384 9.222034 37.664814 9.53437 37.681408 9.517784 C 37.697998 9.501194 37.545288 8.957691 37.342052 8.310005 C 37.138817 7.662323 36.985416 7.09882 37.001167 7.057777 C 37.016918 7.016727 37.463036 6.66124 37.992542 6.267788 C 38.522049 5.874336 38.956322 5.5322 38.957596 5.507477 C 38.958862 5.482758 38.410355 5.462532 37.738682 5.462532 C 36.833942 5.462532 36.501766 5.443115 36.456917 5.387619 C 36.423618 5.346416 36.245827 4.827816 36.061821 4.235176 C 35.877819 3.642532 35.748447 3.136463 35.77433 3.11058 C 35.800217 3.084698 36.628693 3.070667 37.615391 3.079411 L 39.409382 3.095299 L 39.409382 8.788639 L 39.409382 14.481981 L 24.170366 14.497082 C 12.010631 14.509127 8.925571 14.497019 8.902749 14.437151 C 8.887016 14.395884 8.881102 11.827084 8.889603 8.72871 Z M 35.422192 13.070652 C 36.679993 14.01502 37.056549 14.277802 37.070473 14.26388 C 37.084393 14.249958 36.974663 13.861839 36.826622 13.401398 C 36.678581 12.940952 36.543381 12.496803 36.52618 12.414402 C 36.498199 12.280392 36.574394 12.205421 37.247963 11.704205 C 37.662148 11.395992 38.00103 11.119572 38.00103 11.08992 C 38.00103 11.060272 37.586319 11.036011 37.079453 11.036011 C 36.414585 11.036011 36.140934 11.015148 36.09705 10.961102 C 36.063595 10.919899 35.907249 10.474915 35.749615 9.972256 C 35.59198 9.469597 35.445473 9.058327 35.424042 9.058327 C 35.402611 9.058327 35.256104 9.469597 35.098469 9.972256 C 34.940834 10.474915 34.784489 10.919899 34.751034 10.961102 C 34.70715 11.015148 34.433498 11.036011 33.768631 11.036011 C 33.261768 11.036011 32.847057 11.060162 32.847057 11.08968 C 32.847057 11.11919 33.148376 11.368649 33.516663 11.644032 C 33.884945 11.919407 34.227768 12.175507 34.278492 12.213131 C 34.359798 12.273449 34.339684 12.37989 34.108589 13.112083 C 33.964413 13.568874 33.833363 14.023008 33.81736 14.121273 C 33.788265 14.299932 33.788265 14.299932 33.991875 14.147217 C 34.103855 14.063227 34.471489 13.78664 34.808834 13.532578 Z M 29.122507 12.822788 C 30.05315 13.527576 30.334898 13.712116 30.349028 13.687576 C 30.363155 13.66304 30.296349 13.400249 30.200563 13.103596 C 30.10478 12.806946 30.011059 12.481339 29.99229 12.380039 C 29.959938 12.205368 29.986359 12.174862 30.503666 11.789696 C 30.803686 11.566311 31.04916 11.360142 31.04916 11.331535 C 31.04916 11.30294 30.732281 11.271935 30.344982 11.262653 C 29.640806 11.245766 29.640806 11.245766 29.408943 10.541592 C 29.28142 10.154293 29.156528 9.837414 29.131403 9.837414 C 29.106276 9.837414 28.981384 10.154293 28.853861 10.541592 C 28.621998 11.245766 28.621998 11.245766 27.917822 11.262653 C 27.530523 11.271935 27.213646 11.30294 27.213646 11.331535 C 27.213646 11.360142 27.459118 11.566311 27.759138 11.789696 C 28.276445 12.174862 28.302866 12.205368 28.270514 12.380039 C 28.251745 12.481339 28.158024 12.806946 28.062241 13.103596 C 27.966455 13.400249 27.899811 13.6633 27.914139 13.68816 C 27.928463 13.713017 28.206209 13.528481 28.531345 13.278072 Z M 17.125826 9.025391 C 17.257105 8.928135 17.613056 8.662945 17.916828 8.436062 C 18.351963 8.111065 18.492622 8.034775 18.579832 8.076485 C 18.640717 8.105591 19.00234 8.364861 19.383446 8.652622 C 19.764553 8.940384 20.087378 9.156136 20.100836 9.132061 C 20.114292 9.107983 19.992556 8.67028 19.830309 8.159378 C 19.535313 7.230465 19.535313 7.230465 19.723186 7.084522 C 19.826515 7.004257 20.158524 6.75346 20.460978 6.527195 C 20.763437 6.300926 21.01989 6.090179 21.030876 6.058853 C 21.042946 6.024448 20.679939 6.0019 20.113886 6.0019 C 19.176922 6.0019 19.176922 6.0019 19.097954 5.807129 C 19.05452 5.700005 18.91478 5.268353 18.787424 4.847897 C 18.660067 4.427452 18.531794 4.091473 18.502371 4.101276 C 18.472946 4.111088 18.327869 4.509029 18.179983 4.985596 C 18.032093 5.462158 17.883842 5.885784 17.850534 5.926987 C 17.806833 5.981045 17.533407 6.0019 16.868399 6.0019 C 16.361532 6.0019 15.947675 6.022129 15.948714 6.046848 C 15.949757 6.071568 16.207933 6.280575 16.522448 6.511303 C 16.83696 6.742035 17.178967 7.00119 17.282457 7.087215 C 17.470627 7.24361 17.470627 7.24361 17.207293 8.076057 C 17.062462 8.533901 16.931175 8.974583 16.915548 9.055355 C 16.887138 9.202209 16.887138 9.202209 17.125826 9.025391 Z M 24.381018 6.151726 C 24.044266 5.090969 23.917515 4.773346 23.88209 4.761528 C 23.845942 4.749489 23.731232 5.023518 23.620697 5.385967 C 23.51236 5.741207 23.396677 6.065575 23.363625 6.106777 C 23.321625 6.15913 23.089155 6.18169 22.591705 6.18169 C 22.200203 6.18169 21.879883 6.205372 21.879883 6.234318 C 21.879883 6.26326 22.138632 6.481434 22.454876 6.719135 C 23.015661 7.140648 23.028952 7.156246 22.99258 7.350105 C 22.972071 7.459423 22.887682 7.746914 22.805048 7.988964 C 22.722414 8.231018 22.639334 8.489738 22.620426 8.563904 C 22.601519 8.638069 22.606831 8.698746 22.632227 8.698746 C 22.657623 8.698746 22.93178 8.508297 23.241467 8.27552 C 23.556534 8.038696 23.851269 7.860531 23.910648 7.870995 C 23.969013 7.881279 24.265137 8.075203 24.568705 8.301937 C 24.872267 8.528671 25.131998 8.70282 25.145884 8.688934 C 25.159769 8.675049 25.064768 8.327732 24.934772 7.91711 C 24.698418 7.170532 24.698418 7.170532 24.832346 7.070293 C 24.906008 7.015156 25.168537 6.818344 25.415749 6.632919 C 25.662958 6.447498 25.87394 6.270935 25.88459 6.240566 C 25.89555 6.209312 25.573324 6.17804 25.14249 6.16853 Z M 29.071472 7.677685 C 29.966854 8.35289 30.266109 8.55814 30.314154 8.569412 C 30.377819 8.584351 30.390944 8.556187 30.362562 8.465546 C 30.341143 8.397152 30.231279 8.050827 30.118423 7.69593 C 29.953825 7.178333 29.928656 7.038815 29.991205 6.990746 C 30.034092 6.957779 30.316645 6.746063 30.619101 6.52026 C 30.921556 6.294453 31.16902 6.086235 31.16902 6.057545 C 31.16902 6.028851 30.812464 5.997856 30.376675 5.988659 L 29.58433 5.971935 L 29.351868 5.237793 C 29.224014 4.834015 29.100176 4.503654 29.076666 4.503654 C 29.053158 4.503654 28.927755 4.834015 28.797995 5.237793 L 28.562067 5.971935 L 27.763592 5.988689 C 27.309616 5.998215 26.973482 6.029289 26.984505 6.060719 C 26.995167 6.091122 27.194189 6.258877 27.426779 6.43351 C 27.65937 6.608143 27.935364 6.81879 28.040098 6.901615 C 28.23053 7.052212 28.23053 7.052212 28.026661 7.697239 C 27.91453 8.052006 27.804483 8.397984 27.782116 8.466087 C 27.7523 8.556835 27.764767 8.584431 27.828791 8.569412 C 27.876835 8.55814 28.17609 8.35289 28.493805 8.113304 Z"/>
    </g>
</svg>
